<svg width="75" height="30" viewBox="0 0 75 30" fill="none" xmlns="http://www.w3.org/2000/svg">
<rect x="0.5" y="0.5" width="74" height="29" rx="3.5" stroke="#FF5C00" stroke-opacity="0.4"/>
<path d="M10.8651 10.5455H9.32315L12.7255 20H14.3736L17.7759 10.5455H16.234L13.6026 18.2457H13.4964L10.8651 10.5455ZM19.4012 20H25.3842V18.772H20.8277V15.8775H25.0195V14.6541H20.8277V11.7734H25.3288V10.5455H19.4012V20ZM35.1253 10.5455H33.7126V17.4886H33.6249L28.8146 10.5455H27.4943V20H28.9207V13.0661H29.0085L33.8142 20H35.1253V10.5455ZM40.5269 20C43.4076 20 45.0741 18.2134 45.0741 15.2589C45.0741 12.3182 43.4076 10.5455 40.6238 10.5455H37.4662V20H40.5269ZM38.8927 18.7536V11.7919H40.5361C42.6043 11.7919 43.6707 13.0291 43.6707 15.2589C43.6707 17.4979 42.6043 18.7536 40.4484 18.7536H38.8927ZM55.3207 15.2727C55.3207 12.2489 53.5111 10.4162 51.0643 10.4162C48.6084 10.4162 46.8033 12.2489 46.8033 15.2727C46.8033 18.2919 48.6084 20.1293 51.0643 20.1293C53.5111 20.1293 55.3207 18.2965 55.3207 15.2727ZM53.9081 15.2727C53.9081 17.5763 52.6893 18.8274 51.0643 18.8274C49.4347 18.8274 48.2206 17.5763 48.2206 15.2727C48.2206 12.9691 49.4347 11.718 51.0643 11.718C52.6893 11.718 53.9081 12.9691 53.9081 15.2727ZM57.3592 20H58.7857V16.4222H60.7246C60.7569 16.4222 60.7846 16.4222 60.817 16.4222L62.7374 20H64.3624L62.2665 16.1729C63.4253 15.7436 64.0023 14.7788 64.0023 13.5092C64.0023 11.7688 62.9221 10.5455 60.7292 10.5455H57.3592V20ZM58.7857 15.1942V11.7688H60.5769C61.9849 11.7688 62.5666 12.4382 62.5666 13.5092C62.5666 14.5756 61.9849 15.1942 60.5954 15.1942H58.7857Z" fill="#FF5C00"/>
</svg>
